<svg version="1.2" xmlns="http://www.w3.org/2000/svg" viewBox="0 0 80 72" width="80" height="72"><style></style><path  d="m49.4 23.3c-1.3 0.6-2.8 1.1-3.3 1.2q-0.1 0.1-0.1 0.1c0 0 2.8-0.1 4.6-1 1.8-0.9 2.4-1.6 4.4-1.6 1.5 0 3.2 1 4 1.4 0.2 0.1 0.3 0.2 0.3 0.2 0 0-1.3-2.2-3.5-2.7q-0.1 0.1-0.2 0c-0.2-0.1-0.4-0.1-0.7-0.1q-0.1 0-0.2 0c-2.5 0.2-3.7 1.8-5.3 2.5z"/><path  d="m55.5 23.6c-2.7 0-4 1.2-5.6 1.9-3.2 1.4-6 0.8-6 0.8 0 0 2.9 1.3 6.5 0.2 1.9-0.6 3.2-1.6 5.2-1.6 1.9 0 4.7 1.9 4.7 1.9 0 0-2.1-3.2-4.8-3.2z"/><path  d="m50.6 28.3c-1.5 0.1-3.6-0.2-3.6-0.2 0 0 1.9 0.8 4.3 0.8 2.5 0 3.7-0.8 5.7-0.9 2-0.1 3-0.1 3-0.1 0 0-1.8-1.1-3.5-1.1-1.6 0.1-3.8 1.2-5.9 1.5z"/><path  d="m39 44.3c-3.9-6.5 0.7-16.5 0.7-16.5 0 0-2 2.5-3 6.3-0.2 0.6-0.3 1.2-0.4 1.8-0.6 4.1 0 9.5 2.9 11.2 2.7 1.5 4.7 1.3 5.1 1.2 0 0-2.9-0.2-5.3-4z"/><path  d="m36.1 27.8c-0.8 0.7-1.6 1.8-2.2 3.2-2.5 5-2.5 7.8-2.5 7.8 0 0 0.5-0.8 1.3-1.5 0.7-0.8 0.9-0.9 0.9-0.9q0 0 0-0.2c0-0.5 0.4-2.7 1.3-5.2 1-2.6 3.2-5 3.2-5 0 0-0.8 0.6-2 1.8z"/><path  d="m35.3 20c2.7 0 4.6 1.3 4.6 1.3 0 0-1.2 0.1-2.4 0.8-1.2 0.7-1.7 1.8-1.7 1.8 0 0 1.4-1.6 4.5-1.8 1.7 0 2.3 0.4 3.3 0.3 1.2-0.2 1.7-0.8 1.8-1 0 0-1.7 0.4-2.7 0-0.9-0.2-4.2-2.6-6.8-2.5-3.6 0-4.6 3-4.6 3 0 0 0 0 0.1-0.1 0.4-0.3 1.7-1.8 3.9-1.8z"/><path fill-rule="evenodd" d="m63.1 34.4c-0.9 1.2-3.2 4.8-3 7.7 0.1 2.4 1.1 5.2 1.7 6.8 0.2-0.6 0.5-1.1 1-1.2 1-0.2 1.5 1 1.6 2 0.1 0.6 0.1 1.8 0 2.7 0 0.1 0 0.1 0 0.1q0.1 0.2 0.2 0.2c0.1 0.2 0.2 0.4 0.3 0.5 0.2 0.4 0.4 0.9 0.4 1.4 0.1 0.9-0.3 2.1-1.1 2.8-0.4 0.3-0.7 0.6-1 0.7-0.1 0.4-0.5 1.2-1.2 2.2-0.8 1.3-2.2 2.8-4.3 3.2-1 0.2-3.5 1.1-3.5 1.1l0.2-0.9-2.1 0.5 0.1-1.7c-0.3-0.1-3.3-0.4-4.3-2.9-0.5-1.1-0.7-1.7-0.9-2.3-1.1-0.4-2.3-0.7-3.7-1.2-2.6-0.5-5.7 0-7.1 1.3-0.8 0.8-1.3 1.5-1.5 1.9-0.1 0.3-0.2 0.5-0.2 0.6-0.1 0.1-0.1 0.5-0.1 0.5 0 0-0.9-0.4-1.7-0.9-0.8-0.6-1.9-1.4-2.8-2.5-0.9-1.1-1.6-2.4-2-3.4-0.6 0.2-1.1 0.6-1.5 0.9-0.8 0.8-1.2 1.4-1.4 1.9-0.2 0.2-0.2 0.4-0.3 0.5 0 0.2-0.1 0.6-0.1 0.6 0 0-0.9-0.4-1.7-1-0.8-0.5-1.8-1.4-2.7-2.4-0.7-0.9-1.2-1.7-1.7-2.5-0.7 0.7-2 1.2-3 1.5-1 0.4-2.3 0.6-2.3 0.6 0 0 0.5-1.3 0.8-2.9 0.1-0.7 0.2-1.9 0.2-3.2-0.5 0.1-1.1 0.2-2.1 0-2-0.3-2.9-1.1-2.9-1.1 0 0 1.6-1.1 2.4-4 0.2-0.6 0.4-1.4 0.6-2.5-1.7 1.1-3.3 0.8-3.3 0.8 0 0 0.9-2.6 2.1-7.1 1.2-4.6 4.5-8.1 6.4-9.8 0.9-0.8 2.1-2 3-3 0.6-0.6 1-1.2 1.3-1.5-0.7-0.3-2-1.1-3.3-2.8-1.1-1.3-2.4-3.6-2.8-4.8q0-0.1 0-0.1l0.1-0.3c0.1-0.7 0.5-1.1 1.3-1.2 0.3-0.1 0.7-0.1 1-0.1 0.5 0 0.9 0 1.5 0.1 2.1 0.1 6.1 0.2 8.8-0.2 2.7-0.3 7.4-1.4 7.4-1.4 1.1-0.3 2.9-0.7 5-0.9h0.4c0.6-0.1 1.7-0.1 3.1-0.1 1.1 0.1 2.4 0.4 3.4 0.7 0.9 0.3 1.7 0.6 1.8 0.6 0.3 0 1.4-0.1 3.1 0.8 0.6 0.2 2.2 1.2 3.2 1.9 1-0.1 2.5-0.4 3.1-0.3 0.9 0.2 0.8 1.2 0.8 1.6-0.1 0.1-0.2 0.5-0.2 0.7 0.3 0.1 0.8 0.3 1.3 0.6 0.8 0.4 1.7 1 2 1.8 0.4 1.2 0.4 1.9 0.4 2.2 0.9 0.3 2 0.8 3.3 1.3 1.7 0.6 2.7 1.2 3.3 1.9 0 0 0 0 0.1 0 0.1 0.2 0.2 0.4 0.4 0.6 0.1 0.2 0.3 0.5 0.5 0.9 0.4 0.8 0.9 2.1 1 3.5 0 1.4-0.4 2.8-0.8 3.9-0.2 0.5-0.5 1-0.7 1.6-0.2 0.8-0.3 1.8-0.6 2.7-0.6 2.3-2 4.5-2.8 4.3-0.6-0.2-0.8-0.8-0.8-1.3-0.1-0.5 0-1.1-0.1-1.8 0-0.8-0.1-1.4-0.2-1.8v-0.1c-0.3 0.2-0.6 0.3-1 0.2-0.3 0-0.6-0.1-0.7-0.2-0.3 0.1-0.6 0.4-1.2 0.4 0 0-0.1 0 0.1 0.1zm-0.9 21.2q-0.9 0.5-2.5 0.8c-3.1 0.7-7.6-0.1-9.7-3.1q-1.1-1.6-2.2-3.1c-1.2-1.8-2.4-3.4-3.4-4.5-0.3-0.4-0.8-0.9-1.3-1.5-0.5-0.6-1-1.3-1.4-2.1-0.8-1.7-1.1-3.9 0.1-6.9 0.9-2.5 2.5-3.8 3.8-4.4 2.6-1.1 6.2-0.6 8.9-1 1.3-0.1 3.1-0.5 4.9-0.8 1.8-0.4 3.6-0.6 4.9-0.7q0.7 0 1.4 0c0.1-0.4-0.1-0.9-0.4-1.1-0.8-0.6-2.2-0.5-4-2.2-0.4-0.5-0.4-1.1-0.4-1.4 0.1-0.1 0.1-0.3 0.1-0.4 0.1 0 0.1-0.1 0.1-0.1 0 0 0.1 0 0.1-0.1 0.6-1.1 1.8-1.2 2.9-1.2 1.2-0.1 2.8 0.6 3.6 0.6 0.2 0 0.5-0.1 0.7-0.1-0.2-0.4-0.6-0.6-0.9-0.8-0.9-0.6-1.9-0.9-4.9-1.9-0.8-0.3-1.4-0.5-1.8-0.6-0.5-0.2-0.9-0.3-1.1-0.5-0.6-0.3-2.4-2.6-2.4-2.6 0 0 0.2-0.1 0.5-0.1 0.2 0 0.5-0.1 0.8 0 0.2 0.1 0.5 0.3 0.7 0.5 0.2 0.1 0.2 0.2 0.3 0.3q0.2 0.2 0.2 0.4c0.3-0.1 0.6-0.3 1-0.3 0.1 0 0.1-0.1 0.2-0.1 0-0.1 0-0.2-0.1-0.2q0-0.2-0.2-0.4c-0.1-0.1-0.3-0.2-0.5-0.3q-0.2-0.2-0.7-0.4c-0.7-0.3-1.5-0.5-2.1-0.8-0.7-0.2-1.3-0.5-1.8-0.8-0.5-0.3-1.8-1.1-2.9-1.8 0.2 0.3 0.3 0.5 0.6 0.8 0.8 1 1.4 1.7 1.4 1.7 0 0-1.9-0.4-2.9-1.6-0.6-0.8-1.8-2.3-3.4-2.4-1.6-0.1-4.6 0.3-4.6 0.3 0 0 0.5-0.8 2.1-1.2 0.2-0.1 0.3-0.1 0.5-0.1l-1.4-0.1c-1.1 0-2.4 0.1-3.4 0.5-2.2 0.7-3.5 1.5-3.5 1.5 0 0 0.2-0.7 0.7-1.4 0-0.1 0.1-0.2 0.2-0.2l-1.5 0.2q-0.8 0.4-2 1c-3 1.4-4 3.2-4 3.2 0 0 0.2-0.9 1.1-2.4 0.2-0.4 0.3-0.6 0.5-0.8-1.8 0.4-4.4 0.8-7.7 1.1-1.5 0.1-3 0.1-4.3-0.1-0.9 0-1.8-0.1-2.4-0.2h-0.1c0.2 0.1 0.4 0.2 0.6 0.4 0.6 0.3 1.2 0.8 1.5 0.9 0.8 0.7 2.6 1.6 6.4 1.7 0.4 0 0.8 0 1.2 0 4 0.4 5.4 2.2 5.5 2.3l0.3 0.5c0 0-2.6 0.2-4.3 0.6-1.6 0.4-3 1.1-3.3 1.2-0.5 0.5-5.1 5-7.4 7.2-1.2 1-1.9 2.3-2.4 3.4-0.1 0.2-0.2 0.5-0.3 0.7 0.1-0.1 0.3-0.2 0.5-0.3 1.1-0.6 2.3-1 3.3-1.3 0.9-0.3 1.7-0.4 1.7-0.4 0 0-1.6 1.7-2.2 2.3-1.2 1.2-2.5 3-3 5.5-0.3 1.6-0.6 3.3-0.9 4.7q-0.1 0.9-0.3 1.6l6.1-6.1c0 0-0.7 3.2-2 6.3-0.6 1.6-1 3-1.1 4.1q-0.1 0.8-0.2 1.2l2.5-1.3c0 0 0 0.8 0.2 1.4 0.2 0.6 0.4 1.4 0.9 2.2 0.4 0.8 0.8 1.4 1.1 1.6 0.1 0.2 0.2 0.2 0.2 0.3 0.4-0.4 1.1-1.1 2.8-1.7 0.8-0.3 1.8-0.5 2.7-0.6-0.9-0.7-2.2-2-3.1-3.7-1.4-3-0.7-5.5-0.7-5.5 0 0 1.9 4.2 5.2 6.5 3.4 2.5 10.7 4.6 14.7 5.7-0.8-1.3-1.9-3.4-1.9-3.4l1.4 0.4c0.1 0 0.9 0.3 1.7 1.1 0.8 0.7 1.8 1.8 2.6 3.7 1.7 3.7 2.2 4.6 3.1 4.9q0.3 0.2 0.6 0.3c0.2 0 0.5 0.1 0.6 0.1 0.1 0 0.2 0 0.3 0 0.2 0 0.2 0.1 0.3 0.1 0.3 0.1 0.5 0.2 0.6 0.5 0.1 0.1 0.1 0.1 0.1 0.2 0.1 0 1.6-1.2 1.6-1.2 0 0 0.3 0.4 0.3 0.6 0.1 0.4 0.1 0.5 0.1 0.5 0 0 0.5-0.3 0.7-0.6 0.3-0.2 0.5-0.8 0.5-0.8 0 0 0.4 0.5 0.4 0.8 0.1 0.2 0.1 0.4 0.1 0.4l0.1-0.1c0.6-0.3 1.2-0.7 1.6-1.3 0.4-0.5 0.7-1 0.9-1.4q0.1-0.2 0.2-0.4c0.2-0.4 0.2-0.4 0.2-0.4 0 0 1-0.4 1.5-0.9 0.1-0.1 0.2-0.3-0.2-0.6zm7.4-28.5q-0.1 0.3-0.2 0.5c0 0.2-0.1 0.3-0.2 0.4q-0.3 0.4-0.6 0.7c0.6 0.1 0.9 0.3 1.3 0.5 0.2-0.6 0.4-1.4 0.5-2.5-0.2 0-0.3 0.1-0.4 0.2-0.2 0.1-0.3 0.2-0.4 0.2zm-0.4-1.7c0.3-0.1 0.7-0.4 0.6-1.3-0.1 0.1-0.1 0.6-1 1.1-0.5 0.3-0.6 0.4-0.7 1 0 0.4-0.6 2.1-0.6 2.1 0 0 1-1.4 1-1.8 0.1-0.6 0.2-0.9 0.7-1.1zm-1.1-2.3c-0.9 0.1-2.3-0.5-3.3-0.6-1 0-2.7 0.3-2.6 1.2 0 0.2 0.2 0.4 0.3 0.5 0-0.9 1.7-1.2 2.6-1.1 1 0 2.5 0.6 3.3 0.6 0.6-0.1 1.4-1 1.4-1 0 0.1-0.9 0.4-1.7 0.4zm-5.7 9.2c0 0 0.6 0.5 1.1 0.5 0.4 0 1-0.5 1-0.5 0 0 0.3 0.3 0.5 0.4 0.2 0 0.3 0.1 0.4 0.1 0.6-0.1 1.2-0.6 1.2-0.6l0.3 0.5 0.1 0.1q0 0.1 0 0 0 0.1 0.2 0.5c0.1 0.5 0.4 1.2 0.4 2.3 0 0.3 0 0.5 0 0.8q0 0.2 0 0.5 0 0 0 0c0.2-0.3 0.5-0.7 0.7-1.3q0.3-0.6 0.5-1.4 0.4-1.3 0.5-2.4c0.1-0.3 0.1-0.5 0.1-0.7q-0.3-0.2-0.8-0.3c-0.9-0.3-2.2-0.5-3.6-0.5-1.3 0-3.1 0.3-4.8 0.6-1.8 0.4-3.5 0.7-4.8 0.9-0.2 0-0.3 0.1-0.5 0.1q-0.1 0-0.3 0c-0.2 0-0.4 0-0.6 0-0.4 0-0.7 0.1-1.1 0.1-1.2 0-2.6 0.1-3.7 0.1 0.1 0 0.1 0 0.1 0.1q0 0.1 0 0c0.1 0.1 0.1 0.1 0.1 0.1 0.1 0.1 0.1 0.1 0.1 0.2 0.1 0 0.1 0 0.1 0 0 0.1 0 0.1 0.1 0.1 0.1 0.1 0.1 0.1 0.1 0.1 0 0 0 0 0.1 0.1 0 0 0 0 0 0 0.1 0 0.1 0.1 0.1 0.1h0.1c0 0 0.1 0 0.1 0q0.1 0 0.1 0c0 0 0.1 0.1 0.1 0.1 0.1 0 0.3 0 0.3 0 0 0 0.1 0 0.1 0q0.1 0 0.2 0c0.6 0 0.9-0.5 0.9-0.5q0.1 0.1 0.2 0.2l0.2 0.2c0 0.1 0.1 0.1 0.1 0.1v0.1c0 0 0.1 0 0.1 0 0 0.1 0 0.1 0 0.1q0.1 0 0.1 0c0 0 0.1 0 0.1 0q0.1 0 0.1 0c0 0 0.2 0 0.2 0 0 0 0.1 0 0.2 0 0.3-0.1 0.6-0.4 0.8-0.3 0.2 0.5 0.4 1.1 0.5 1.5 0.3 1.6 0.3 2.8 0.2 4.2 0.3-0.3 0.6-0.6 0.9-1.1q0.2-0.2 0.3-0.5c0.3-0.4 0.6-0.8 0.8-1.4 0.6-1.2 0.9-3.4 0.9-3.4 0 0 0.2 0.1 0.4 0.2 0.2 0.2 0.7 0.3 1 0.3q0.1 0 0.1 0 0.3-0.1 0.4-0.2c0.3-0.2 0.6-0.5 0.6-0.5 0 0 0.5 0.6 0.9 0.6q0.1 0 0.1 0c0.1 0 0.1 0 0.1 0 0.5 0 1.2-0.3 1.2-0.3zm-1.7 20.5c-0.2-0.1-0.3-0.1-0.4-0.1-0.3 0.1-0.5 0.2-0.6 0.4-0.1-0.1-0.3-0.2-0.4-0.2q-0.1-0.1-0.2-0.1-0.1 0-0.2 0c-0.2 0-0.2 0-0.3 0.1q-0.1 0-0.1 0c-0.3 0.1-0.4 0.3-0.4 0.3 0 0-0.1-0.2-0.4-0.3-0.2 0-0.3-0.1-0.6-0.1-0.4 0-0.7 0.2-1 0.4q-0.3 0.2-0.3 0.3c0 0-0.1-1.1-0.3-2.8q-0.1-0.5-0.2-0.8c-0.1-0.4-0.2-0.6-0.2-0.8-0.1-0.1-0.1-0.2-0.1-0.2-0.1 0-0.1 0.1-0.2 0.1 0 0.1-0.1 0.3-0.2 0.4-0.1 0.2-0.2 0.4-0.4 0.6-0.1 0.2-0.2 0.5-0.3 0.7-0.4 0.6-0.9 1.1-1.3 1.4-0.1 0.2-0.2 0.2-0.3 0.3 0 0 0 0 0 0-0.1 0-0.2 0.1-0.2 0.1 0.3 0.5 0.7 0.8 1.2 1.1 0.3 0.1 0.6 0.3 0.9 0.4 2.2 1 4.2 1.1 5.9 0.7 1.1-0.3 2-0.8 2.6-1.1 0.1 0 0.1 0 0.1 0q0.1-0.5 0.2-1.2c0-0.9 0-1.8 0-2.2-0.1-0.4-0.2-0.7-0.3-0.9 0 0 0 0 0-0.1q-0.2 0.2-0.3 0.8c-0.2 0.5-0.4 1.1-0.6 1.5-0.3 0.4-0.8 1.5-0.8 1.5 0 0-0.2-0.2-0.3-0.2zm-1.1-3.2c-0.8-1.1-0.6-2.3-1.3-4.8-0.8-2.4-2.1-3.4-3-3.6-0.6-0.2-1.1 0-1.3 0.1 0.1 0.2 0.2 0.3 0.4 0.4 1 1.5 1.1 3.2 1.1 3.2 0 0-0.7-1.3-1.7-2.5-1-1.2-2.3-1.7-4.6-1.6-1.7 0.1-3.8 1.1-4.7 1.7 0.2 0.4 0.5 0.7 0.8 1 1.1 0 3.7 0 4.7 1.3 1.4 1.7 1.2 4 2 5.5q0.1 0.2 0.2 0.4c0.2-0.2 0.6-0.6 0.8-1.1 0.5-0.7 0.8-1.2 1.1-1.7 0.3-0.3 0.6-0.8 1-0.8 0.6 0 1.1 1.3 1.4 2.9 0.2 0.5 0.4 0.9 0.4 1.2 0.2 0 0.1 0 0.4 0 0.3 0 0.6 0.1 0.8 0.1 0 0 0.1 0 0.1 0 0.3-0.1 0.5-0.1 0.8-0.1q0.4 0 0.7 0.1c0.1-0.1 0.4-0.2 0.6-0.2 0 0 0 0 0.1 0l-0.2-0.6c-0.1-0.2-0.4-0.5-0.6-0.9zm8.8-14.4c0 0 0 0.1 0 0z"/><path fill-rule="evenodd" d="m38.7 17.5c-1.3-0.4-2.2-1.1-2.2-1.1 0 0 2.3 0.7 4.7 0.2 0.1 0 0.3 0 0.5-0.1-0.2 0-0.3 0-0.4 0-1.6-0.4-2.1-0.8-2.2-1q0 0 0 0c0 0 1 0.3 3.1-0.3 2.2-0.5 4.4-1.1 4.4-1.1l2.2 1.3c0 0 0 0.1 0.1 0.1l3.3 2.2c0 0 0.6 0.2 1 0.1 0.9-0.1 1.2-1.1 1.3-1.3q0 0 0 0c0 0 0.5 0.8 0.4 1.7-0.1 0.7-0.6 2-3.6 1.5-0.5-0.1-1-0.3-1.5-0.4-0.7 0.7-1.9 1.2-3.3 1.3-2.1 0.2-3.9-0.6-4.3-1.8-0.3 0.2-0.8 0.3-1.2 0.4-1.5 0.2-2.1-0.4-2.1-0.4 0 0 0.4 0.2 1.4-0.2 1.1-0.4 1-0.8 1-0.8 0 0-1.2 0.1-2.6-0.3zm5.4 0.8c0.1 0.8 1.2 1.4 2.6 1.4 0.1 0 0.1 0 0.1 0 1.1-0.1 1.6-0.6 1.9-1-0.6-0.3-1-0.6-1.4-0.9 0 0.1-0.1 0.1-0.1 0.3-0.4 0.7-0.7 0.9-0.7 0.9 0 0 0-0.9-0.1-1.5q-0.1-0.1 0-0.2c-1.2 0.1-1.9 0.2-2.1 0.2-0.2 0.3-0.2 0.5-0.2 0.8z"/></svg>